<mxfile host="Electron" modified="2024-08-07T21:17:04.423Z" agent="Mozilla/5.0 (Macintosh; Intel Mac OS X 10_15_7) AppleWebKit/537.36 (KHTML, like Gecko) draw.io/24.6.4 Chrome/124.0.6367.207 Electron/30.0.6 Safari/537.36" version="24.6.4" etag="08vjqMRO2S39ZF--8Acr" type="device">
  <diagram id="ml8bYYsEtUAZJTW_Lftc" name="Page-1">
    <mxGraphModel dx="2464" dy="1648" grid="1" gridSize="10" guides="0" tooltips="1" connect="1" arrows="1" fold="1" page="0" pageScale="1" pageWidth="827" pageHeight="1169" background="#ffffff" math="0" shadow="0">
      <root>
        <mxCell id="0" />
        <mxCell id="1" parent="0" />
        <mxCell id="151" value="" style="rounded=0;whiteSpace=wrap;html=1;strokeColor=#000000;strokeWidth=1;fontSize=20;fillColor=#9C9C9C;fillStyle=cross-hatch;" parent="1" vertex="1">
          <mxGeometry x="-370" y="750" width="2430" height="340" as="geometry" />
        </mxCell>
        <mxCell id="160" value="" style="rounded=0;whiteSpace=wrap;html=1;strokeColor=#000000;strokeWidth=1;fontSize=20;fillColor=#9C9C9C;fillStyle=cross-hatch;" parent="1" vertex="1">
          <mxGeometry x="-10" y="140" width="1690" height="140" as="geometry" />
        </mxCell>
        <mxCell id="146" value="" style="rounded=0;whiteSpace=wrap;html=1;strokeColor=#000000;strokeWidth=1;fontSize=20;fillColor=#9C9C9C;fillStyle=cross-hatch;" parent="1" vertex="1">
          <mxGeometry x="-10" y="410" width="1690" height="180" as="geometry" />
        </mxCell>
        <mxCell id="117" style="edgeStyle=orthogonalEdgeStyle;html=1;strokeWidth=3;orthogonal=1;strokeColor=#000000;" parent="1" source="2" target="3" edge="1">
          <mxGeometry relative="1" as="geometry" />
        </mxCell>
        <mxCell id="2" value="Account Root" style="rounded=0;whiteSpace=wrap;html=1;fillColor=#0050ef;fontColor=#ffffff;strokeColor=#000000;fontStyle=1;fontSize=20;strokeWidth=2;align=center;spacing=0;" parent="1" vertex="1">
          <mxGeometry x="631.6616821289062" y="50" width="190" height="60" as="geometry" />
        </mxCell>
        <mxCell id="116" style="edgeStyle=orthogonalEdgeStyle;html=1;strokeWidth=3;orthogonal=1;strokeColor=#000000;" parent="1" source="3" target="107" edge="1">
          <mxGeometry relative="1" as="geometry" />
        </mxCell>
        <mxCell id="3" value="Cluster Root Appset" style="shape=parallelogram;perimeter=parallelogramPerimeter;whiteSpace=wrap;html=1;fixedSize=1;fillColor=#008a00;fontColor=#ffffff;strokeColor=#000000;fontStyle=1;fontSize=20;strokeWidth=2;align=center;spacing=0;" parent="1" vertex="1">
          <mxGeometry x="631.6616821289062" y="180" width="190" height="60" as="geometry" />
        </mxCell>
        <mxCell id="134" style="edgeStyle=orthogonalEdgeStyle;html=1;strokeWidth=3;orthogonal=1;strokeColor=#000000;" parent="1" source="5" target="125" edge="1">
          <mxGeometry relative="1" as="geometry">
            <Array as="points">
              <mxPoint x="1345" y="610" />
              <mxPoint x="801" y="610" />
            </Array>
          </mxGeometry>
        </mxCell>
        <mxCell id="5" value="Instance Root Appset" style="shape=parallelogram;perimeter=parallelogramPerimeter;whiteSpace=wrap;html=1;fixedSize=1;fillColor=#008a00;fontColor=#ffffff;strokeColor=#000000;fontStyle=1;fontSize=20;strokeWidth=2;align=center;spacing=0;" parent="1" vertex="1">
          <mxGeometry x="1250" y="500" width="190" height="60" as="geometry" />
        </mxCell>
        <mxCell id="11" value="Operator Catalog" style="rounded=0;whiteSpace=wrap;html=1;fillColor=#d80073;strokeColor=#000000;fontColor=#ffffff;fontStyle=1;fontSize=20;strokeWidth=2;align=center;spacing=0;" parent="1" vertex="1">
          <mxGeometry x="145" y="500" width="140" height="60" as="geometry" />
        </mxCell>
        <mxCell id="13" value="Cert Manager" style="rounded=0;whiteSpace=wrap;html=1;fillColor=#d80073;strokeColor=#000000;fontColor=#ffffff;fontStyle=1;fontSize=20;strokeWidth=2;align=center;spacing=0;" parent="1" vertex="1">
          <mxGeometry x="315" y="500" width="140" height="60" as="geometry" />
        </mxCell>
        <mxCell id="14" value="DRO" style="rounded=0;whiteSpace=wrap;html=1;fillColor=#d80073;strokeColor=#000000;fontColor=#ffffff;fontStyle=1;fontSize=20;strokeWidth=2;align=center;spacing=0;" parent="1" vertex="1">
          <mxGeometry x="485" y="500" width="140" height="60" as="geometry" />
        </mxCell>
        <mxCell id="15" value="CIS Compliance" style="rounded=0;whiteSpace=wrap;html=1;fillColor=#d80073;strokeColor=#000000;fontColor=#ffffff;fontStyle=1;fontSize=20;strokeWidth=2;align=center;spacing=0;" parent="1" vertex="1">
          <mxGeometry x="655" y="500" width="140" height="60" as="geometry" />
        </mxCell>
        <mxCell id="16" value="NFD" style="rounded=0;whiteSpace=wrap;html=1;fillColor=#d80073;strokeColor=#000000;fontColor=#ffffff;fontStyle=1;fontSize=20;strokeWidth=2;align=center;spacing=0;" parent="1" vertex="1">
          <mxGeometry x="825" y="500" width="140" height="60" as="geometry" />
        </mxCell>
        <mxCell id="17" value="DB2U" style="rounded=0;whiteSpace=wrap;html=1;fillColor=#d80073;strokeColor=#000000;fontColor=#ffffff;fontStyle=1;fontSize=20;strokeWidth=2;align=center;spacing=0;" parent="1" vertex="1">
          <mxGeometry x="1530" y="850" width="140" height="60" as="geometry" />
        </mxCell>
        <mxCell id="26" value="MAS Suite" style="rounded=0;whiteSpace=wrap;html=1;fillColor=#d80073;strokeColor=#000000;fontColor=#ffffff;fontStyle=1;fontSize=20;strokeWidth=2;align=center;spacing=0;" parent="1" vertex="1">
          <mxGeometry x="510" y="850" width="140" height="60" as="geometry" />
        </mxCell>
        <mxCell id="34" value="SLS" style="rounded=0;whiteSpace=wrap;html=1;fillColor=#d80073;strokeColor=#000000;fontColor=#ffffff;fontStyle=1;fontSize=20;strokeWidth=2;align=center;spacing=0;" parent="1" vertex="1">
          <mxGeometry x="170" y="850" width="140" height="60" as="geometry" />
        </mxCell>
        <mxCell id="50" value="CP4D" style="rounded=0;whiteSpace=wrap;html=1;fillColor=#d80073;strokeColor=#000000;fontColor=#ffffff;fontStyle=1;fontSize=20;strokeWidth=2;align=center;spacing=0;" parent="1" vertex="1">
          <mxGeometry y="850" width="140" height="60" as="geometry" />
        </mxCell>
        <mxCell id="118" style="edgeStyle=orthogonalEdgeStyle;html=1;strokeWidth=3;orthogonal=1;strokeColor=#000000;" parent="1" source="107" target="11" edge="1">
          <mxGeometry relative="1" as="geometry">
            <Array as="points">
              <mxPoint x="726" y="440" />
              <mxPoint x="215" y="440" />
            </Array>
          </mxGeometry>
        </mxCell>
        <mxCell id="119" style="edgeStyle=orthogonalEdgeStyle;html=1;strokeWidth=3;orthogonal=1;strokeColor=#000000;" parent="1" source="107" target="13" edge="1">
          <mxGeometry relative="1" as="geometry">
            <Array as="points">
              <mxPoint x="726" y="440" />
              <mxPoint x="385" y="440" />
            </Array>
          </mxGeometry>
        </mxCell>
        <mxCell id="120" style="edgeStyle=orthogonalEdgeStyle;html=1;strokeWidth=3;orthogonal=1;strokeColor=#000000;" parent="1" source="107" target="14" edge="1">
          <mxGeometry relative="1" as="geometry">
            <Array as="points">
              <mxPoint x="726" y="440" />
              <mxPoint x="555" y="440" />
            </Array>
          </mxGeometry>
        </mxCell>
        <mxCell id="121" style="edgeStyle=orthogonalEdgeStyle;html=1;strokeWidth=3;orthogonal=1;strokeColor=#000000;" parent="1" source="107" target="15" edge="1">
          <mxGeometry relative="1" as="geometry" />
        </mxCell>
        <mxCell id="122" style="edgeStyle=orthogonalEdgeStyle;html=1;strokeWidth=3;orthogonal=1;strokeColor=#000000;" parent="1" source="107" target="16" edge="1">
          <mxGeometry relative="1" as="geometry">
            <Array as="points">
              <mxPoint x="726" y="440" />
              <mxPoint x="895" y="440" />
            </Array>
          </mxGeometry>
        </mxCell>
        <mxCell id="124" style="edgeStyle=orthogonalEdgeStyle;html=1;strokeWidth=3;orthogonal=1;strokeColor=#000000;" parent="1" source="107" target="5" edge="1">
          <mxGeometry relative="1" as="geometry">
            <Array as="points">
              <mxPoint x="726" y="440" />
              <mxPoint x="1345" y="440" />
            </Array>
          </mxGeometry>
        </mxCell>
        <mxCell id="107" value="&lt;span style=&quot;color: rgb(255, 255, 255); font-family: Helvetica; font-size: 20px; font-style: normal; font-variant-ligatures: normal; font-variant-caps: normal; letter-spacing: normal; orphans: 2; text-indent: 0px; text-transform: none; widows: 2; word-spacing: 0px; -webkit-text-stroke-width: 0px; text-decoration-thickness: initial; text-decoration-style: initial; text-decoration-color: initial; float: none; display: inline !important;&quot;&gt;Cluster Roots&lt;/span&gt;" style="verticalLabelPosition=middle;verticalAlign=middle;html=1;shape=mxgraph.basic.layered_rect;dx=10;outlineConnect=0;fillColor=#0050ef;fontColor=#ffffff;strokeColor=#000000;labelPosition=center;align=center;labelBackgroundColor=none;whiteSpace=wrap;horizontal=1;fontStyle=1;fontSize=20;strokeWidth=2;spacing=0;" parent="1" vertex="1">
          <mxGeometry x="632.004248046875" y="299" width="190" height="80" as="geometry" />
        </mxCell>
        <mxCell id="136" style="edgeStyle=orthogonalEdgeStyle;html=1;strokeWidth=3;orthogonal=1;strokeColor=#000000;" parent="1" source="125" target="34" edge="1">
          <mxGeometry relative="1" as="geometry">
            <Array as="points">
              <mxPoint x="801" y="780" />
              <mxPoint x="240" y="780" />
            </Array>
          </mxGeometry>
        </mxCell>
        <mxCell id="137" style="edgeStyle=orthogonalEdgeStyle;html=1;strokeWidth=3;orthogonal=1;strokeColor=#000000;" parent="1" source="125" target="129" edge="1">
          <mxGeometry relative="1" as="geometry">
            <Array as="points">
              <mxPoint x="801" y="780" />
              <mxPoint x="410" y="780" />
            </Array>
          </mxGeometry>
        </mxCell>
        <mxCell id="138" style="edgeStyle=orthogonalEdgeStyle;html=1;strokeWidth=3;orthogonal=1;strokeColor=#000000;" parent="1" source="125" target="26" edge="1">
          <mxGeometry relative="1" as="geometry">
            <Array as="points">
              <mxPoint x="801" y="780" />
              <mxPoint x="580" y="780" />
            </Array>
          </mxGeometry>
        </mxCell>
        <mxCell id="139" style="edgeStyle=orthogonalEdgeStyle;html=1;strokeWidth=3;orthogonal=1;strokeColor=#000000;" parent="1" source="125" target="130" edge="1">
          <mxGeometry relative="1" as="geometry">
            <Array as="points">
              <mxPoint x="801" y="780" />
              <mxPoint x="750" y="780" />
            </Array>
          </mxGeometry>
        </mxCell>
        <mxCell id="140" style="edgeStyle=orthogonalEdgeStyle;html=1;strokeWidth=3;orthogonal=1;strokeColor=#000000;" parent="1" source="125" target="131" edge="1">
          <mxGeometry relative="1" as="geometry">
            <Array as="points">
              <mxPoint x="801" y="780" />
              <mxPoint x="920" y="780" />
            </Array>
          </mxGeometry>
        </mxCell>
        <mxCell id="141" style="edgeStyle=orthogonalEdgeStyle;html=1;strokeWidth=3;orthogonal=1;strokeColor=#000000;" parent="1" source="125" target="132" edge="1">
          <mxGeometry relative="1" as="geometry">
            <Array as="points">
              <mxPoint x="801" y="780" />
              <mxPoint x="1090" y="780" />
            </Array>
          </mxGeometry>
        </mxCell>
        <mxCell id="142" style="edgeStyle=orthogonalEdgeStyle;html=1;strokeWidth=3;orthogonal=1;strokeColor=#000000;" parent="1" source="125" target="133" edge="1">
          <mxGeometry relative="1" as="geometry">
            <Array as="points">
              <mxPoint x="801" y="780" />
              <mxPoint x="1260" y="780" />
            </Array>
          </mxGeometry>
        </mxCell>
        <mxCell id="145" style="edgeStyle=orthogonalEdgeStyle;html=1;strokeColor=#000000;strokeWidth=3;fontSize=20;orthogonal=1;" parent="1" source="125" target="143" edge="1">
          <mxGeometry relative="1" as="geometry">
            <Array as="points">
              <mxPoint x="801" y="780" />
              <mxPoint x="1430" y="780" />
            </Array>
          </mxGeometry>
        </mxCell>
        <mxCell id="WCPXIc9LmJP7Mr7B8AD5-185" style="edgeStyle=orthogonalEdgeStyle;rounded=1;orthogonalLoop=1;jettySize=auto;html=1;exitX=0;exitY=0;exitDx=100;exitDy=80;exitPerimeter=0;entryX=1;entryY=0.5;entryDx=0;entryDy=0;strokeWidth=3;curved=0;" edge="1" parent="1" source="125" target="WCPXIc9LmJP7Mr7B8AD5-183">
          <mxGeometry relative="1" as="geometry">
            <Array as="points">
              <mxPoint x="806" y="780" />
              <mxPoint x="160" y="780" />
              <mxPoint x="160" y="960" />
            </Array>
          </mxGeometry>
        </mxCell>
        <mxCell id="WCPXIc9LmJP7Mr7B8AD5-186" style="edgeStyle=orthogonalEdgeStyle;rounded=1;orthogonalLoop=1;jettySize=auto;html=1;exitX=0;exitY=0;exitDx=100;exitDy=80;exitPerimeter=0;entryX=1;entryY=0.5;entryDx=0;entryDy=0;strokeWidth=3;curved=0;" edge="1" parent="1" source="125" target="WCPXIc9LmJP7Mr7B8AD5-184">
          <mxGeometry relative="1" as="geometry">
            <Array as="points">
              <mxPoint x="806" y="780" />
              <mxPoint x="160" y="780" />
              <mxPoint x="160" y="1040" />
            </Array>
          </mxGeometry>
        </mxCell>
        <mxCell id="125" value="Instance Roots" style="verticalLabelPosition=middle;verticalAlign=middle;html=1;shape=mxgraph.basic.layered_rect;dx=10;outlineConnect=0;fillColor=#0050ef;fontColor=#ffffff;strokeColor=#000000;labelPosition=center;align=center;labelBackgroundColor=none;whiteSpace=wrap;horizontal=1;fontStyle=1;fontSize=20;strokeWidth=2;spacing=0;" parent="1" vertex="1">
          <mxGeometry x="706" y="660" width="190" height="80" as="geometry" />
        </mxCell>
        <mxCell id="129" value="DB2 Databases" style="verticalLabelPosition=middle;verticalAlign=middle;html=1;shape=mxgraph.basic.layered_rect;dx=10;outlineConnect=0;fillColor=#d80073;fontColor=#ffffff;strokeColor=#000000;labelPosition=center;align=center;labelBackgroundColor=none;whiteSpace=wrap;horizontal=1;strokeWidth=2;fontStyle=1;fontSize=20;spacing=0;" parent="1" vertex="1">
          <mxGeometry x="340" y="840" width="140" height="80" as="geometry" />
        </mxCell>
        <mxCell id="130" value="MAS Suite Config" style="verticalLabelPosition=middle;verticalAlign=middle;html=1;shape=mxgraph.basic.layered_rect;dx=10;outlineConnect=0;fillColor=#d80073;fontColor=#ffffff;strokeColor=#000000;labelPosition=center;align=center;labelBackgroundColor=none;whiteSpace=wrap;horizontal=1;fontStyle=1;fontSize=20;strokeWidth=2;spacing=0;" parent="1" vertex="1">
          <mxGeometry x="680" y="840" width="140" height="80" as="geometry" />
        </mxCell>
        <mxCell id="131" value="MAS Suite Workspaces" style="verticalLabelPosition=middle;verticalAlign=middle;html=1;shape=mxgraph.basic.layered_rect;dx=10;outlineConnect=0;fillColor=#d80073;fontColor=#ffffff;strokeColor=#000000;labelPosition=center;align=center;labelBackgroundColor=none;whiteSpace=wrap;horizontal=1;fontStyle=1;fontSize=20;strokeWidth=2;spacing=0;" parent="1" vertex="1">
          <mxGeometry x="850" y="840" width="140" height="80" as="geometry" />
        </mxCell>
        <mxCell id="132" value="MAS App Installs" style="verticalLabelPosition=middle;verticalAlign=middle;html=1;shape=mxgraph.basic.layered_rect;dx=10;outlineConnect=0;fillColor=#d80073;fontColor=#ffffff;strokeColor=#000000;labelPosition=center;align=center;labelBackgroundColor=none;whiteSpace=wrap;horizontal=1;fontStyle=1;fontSize=20;strokeWidth=2;spacing=0;" parent="1" vertex="1">
          <mxGeometry x="1020" y="840" width="140" height="80" as="geometry" />
        </mxCell>
        <mxCell id="133" value="MAS App Configs" style="verticalLabelPosition=middle;verticalAlign=middle;html=1;shape=mxgraph.basic.layered_rect;dx=10;outlineConnect=0;fillColor=#d80073;fontColor=#ffffff;strokeColor=#000000;labelPosition=center;align=center;labelBackgroundColor=none;whiteSpace=wrap;horizontal=1;fontStyle=1;fontSize=20;strokeWidth=2;spacing=0;" parent="1" vertex="1">
          <mxGeometry x="1190" y="840" width="140" height="80" as="geometry" />
        </mxCell>
        <mxCell id="143" value="WSL" style="rounded=0;whiteSpace=wrap;html=1;fillColor=#d80073;strokeColor=#000000;fontColor=#ffffff;fontStyle=1;fontSize=20;strokeWidth=2;align=center;spacing=0;" parent="1" vertex="1">
          <mxGeometry x="1360" y="850" width="140" height="60" as="geometry" />
        </mxCell>
        <mxCell id="152" value="" style="edgeStyle=orthogonalEdgeStyle;html=1;strokeWidth=3;orthogonal=1;strokeColor=#000000;endArrow=none;" parent="1" source="125" target="151" edge="1">
          <mxGeometry relative="1" as="geometry">
            <Array as="points">
              <mxPoint x="801" y="780" />
            </Array>
            <mxPoint x="801.0476190476188" y="740" as="sourcePoint" />
            <mxPoint x="70" y="850" as="targetPoint" />
          </mxGeometry>
        </mxCell>
        <mxCell id="162" value="&lt;font style=&quot;font-size: 20px;&quot;&gt;ibm-mas-account-root&lt;/font&gt;" style="rounded=0;whiteSpace=wrap;html=1;fillColor=#009999;strokeColor=#000000;fontSize=36;fontColor=#ffffff;strokeWidth=1;fontStyle=1;spacingLeft=42;align=left;spacing=0;verticalAlign=middle;spacingTop=-11;fillStyle=solid;" parent="1" vertex="1">
          <mxGeometry x="-10" y="90" width="270" height="50" as="geometry" />
        </mxCell>
        <mxCell id="163" value="" style="shape=image;verticalLabelPosition=bottom;labelBackgroundColor=default;verticalAlign=top;aspect=fixed;imageAspect=0;image=https://helm.sh/img/helm.svg;" parent="1" vertex="1">
          <mxGeometry y="100" width="25.99" height="30" as="geometry" />
        </mxCell>
        <mxCell id="148" value="&lt;font style=&quot;font-size: 20px;&quot;&gt;ibm-mas-cluster-root&lt;/font&gt;" style="rounded=0;whiteSpace=wrap;html=1;fillColor=#009999;strokeColor=#000000;fontSize=36;fontColor=#ffffff;strokeWidth=1;fontStyle=1;spacingLeft=42;align=left;spacing=0;verticalAlign=middle;spacingTop=-11;fillStyle=solid;" parent="1" vertex="1">
          <mxGeometry x="-10" y="360" width="270" height="50" as="geometry" />
        </mxCell>
        <mxCell id="149" value="" style="shape=image;verticalLabelPosition=bottom;labelBackgroundColor=default;verticalAlign=top;aspect=fixed;imageAspect=0;image=https://helm.sh/img/helm.svg;" parent="1" vertex="1">
          <mxGeometry y="370" width="25.99" height="30" as="geometry" />
        </mxCell>
        <mxCell id="158" value="&lt;font style=&quot;font-size: 20px;&quot;&gt;ibm-mas-instance-root&lt;/font&gt;" style="rounded=0;whiteSpace=wrap;html=1;fillColor=#009999;strokeColor=#000000;fontSize=36;fontColor=#ffffff;strokeWidth=1;fontStyle=1;spacingLeft=42;align=left;spacing=0;verticalAlign=middle;spacingTop=-11;fillStyle=solid;" parent="1" vertex="1">
          <mxGeometry x="-10" y="700" width="270" height="50" as="geometry" />
        </mxCell>
        <mxCell id="159" value="" style="shape=image;verticalLabelPosition=bottom;labelBackgroundColor=default;verticalAlign=top;aspect=fixed;imageAspect=0;image=https://helm.sh/img/helm.svg;" parent="1" vertex="1">
          <mxGeometry y="710" width="25.99" height="30" as="geometry" />
        </mxCell>
        <mxCell id="165" style="edgeStyle=orthogonalEdgeStyle;html=1;strokeColor=#000000;strokeWidth=3;fontSize=20;orthogonal=1;" parent="1" source="125" target="17" edge="1">
          <mxGeometry relative="1" as="geometry">
            <Array as="points">
              <mxPoint x="800" y="780" />
              <mxPoint x="1610" y="780" />
            </Array>
            <mxPoint x="811" y="750" as="sourcePoint" />
            <mxPoint x="1440" y="860" as="targetPoint" />
          </mxGeometry>
        </mxCell>
        <mxCell id="166" style="edgeStyle=orthogonalEdgeStyle;html=1;strokeWidth=3;orthogonal=1;strokeColor=#000000;" parent="1" source="125" target="50" edge="1">
          <mxGeometry relative="1" as="geometry">
            <Array as="points">
              <mxPoint x="800" y="780" />
              <mxPoint x="70" y="780" />
            </Array>
            <mxPoint x="811" y="750" as="sourcePoint" />
            <mxPoint x="590" y="860" as="targetPoint" />
          </mxGeometry>
        </mxCell>
        <mxCell id="170" value="WML" style="rounded=0;whiteSpace=wrap;html=1;fillColor=#d80073;strokeColor=#000000;fontColor=#ffffff;fontStyle=1;fontSize=20;strokeWidth=2;align=center;spacing=0;" parent="1" vertex="1">
          <mxGeometry x="1690" y="850" width="140" height="60" as="geometry" />
        </mxCell>
        <mxCell id="171" value="AI OpenScale" style="rounded=0;whiteSpace=wrap;html=1;fillColor=#d80073;strokeColor=#000000;fontColor=#ffffff;fontStyle=1;fontSize=20;strokeWidth=2;align=center;spacing=0;" parent="1" vertex="1">
          <mxGeometry x="1850" y="850" width="140" height="60" as="geometry" />
        </mxCell>
        <mxCell id="174" style="edgeStyle=orthogonalEdgeStyle;html=1;strokeColor=#000000;strokeWidth=3;fontSize=20;orthogonal=1;" parent="1" edge="1">
          <mxGeometry relative="1" as="geometry">
            <Array as="points">
              <mxPoint x="800" y="780" />
              <mxPoint x="1610" y="780" />
            </Array>
            <mxPoint x="800" y="740" as="sourcePoint" />
            <mxPoint x="1610" y="850" as="targetPoint" />
          </mxGeometry>
        </mxCell>
        <mxCell id="175" style="edgeStyle=orthogonalEdgeStyle;html=1;strokeColor=#000000;strokeWidth=3;fontSize=20;orthogonal=1;" parent="1" edge="1">
          <mxGeometry relative="1" as="geometry">
            <Array as="points">
              <mxPoint x="800" y="740" />
              <mxPoint x="800" y="780" />
              <mxPoint x="1760" y="780" />
            </Array>
            <mxPoint x="800" y="760" as="sourcePoint" />
            <mxPoint x="1760" y="850" as="targetPoint" />
          </mxGeometry>
        </mxCell>
        <mxCell id="176" style="edgeStyle=none;html=1;exitX=0.5;exitY=1;exitDx=0;exitDy=0;entryX=1;entryY=1;entryDx=0;entryDy=0;" parent="1" source="170" target="170" edge="1">
          <mxGeometry relative="1" as="geometry" />
        </mxCell>
        <mxCell id="177" style="edgeStyle=orthogonalEdgeStyle;html=1;strokeColor=#000000;strokeWidth=3;fontSize=20;orthogonal=1;" parent="1" edge="1">
          <mxGeometry relative="1" as="geometry">
            <Array as="points">
              <mxPoint x="800" y="780" />
              <mxPoint x="1920" y="780" />
            </Array>
            <mxPoint x="800" y="740" as="sourcePoint" />
            <mxPoint x="1920" y="850" as="targetPoint" />
          </mxGeometry>
        </mxCell>
        <mxCell id="178" value="Spark" style="rounded=0;whiteSpace=wrap;html=1;fillColor=#d80073;strokeColor=#000000;fontColor=#ffffff;fontStyle=1;fontSize=20;strokeWidth=2;align=center;spacing=0;" parent="1" vertex="1">
          <mxGeometry x="-150" y="850" width="140" height="60" as="geometry" />
        </mxCell>
        <mxCell id="179" value="SPSS Modeler" style="rounded=0;whiteSpace=wrap;html=1;fillColor=#d80073;strokeColor=#000000;fontColor=#ffffff;fontStyle=1;fontSize=20;strokeWidth=2;align=center;spacing=0;" parent="1" vertex="1">
          <mxGeometry x="-310" y="850" width="140" height="60" as="geometry" />
        </mxCell>
        <mxCell id="180" style="edgeStyle=orthogonalEdgeStyle;html=1;strokeWidth=3;orthogonal=1;strokeColor=#000000;" parent="1" edge="1">
          <mxGeometry relative="1" as="geometry">
            <Array as="points">
              <mxPoint x="800" y="740" />
              <mxPoint x="800" y="780" />
              <mxPoint x="-240" y="780" />
            </Array>
            <mxPoint x="800" y="740" as="sourcePoint" />
            <mxPoint x="-240" y="850" as="targetPoint" />
          </mxGeometry>
        </mxCell>
        <mxCell id="181" style="edgeStyle=orthogonalEdgeStyle;html=1;strokeWidth=3;orthogonal=1;strokeColor=#000000;" parent="1" edge="1">
          <mxGeometry relative="1" as="geometry">
            <Array as="points">
              <mxPoint x="800" y="740" />
              <mxPoint x="800" y="780" />
              <mxPoint x="-80" y="780" />
            </Array>
            <mxPoint x="800" y="750" as="sourcePoint" />
            <mxPoint x="-80" y="850" as="targetPoint" />
          </mxGeometry>
        </mxCell>
        <mxCell id="WCPXIc9LmJP7Mr7B8AD5-181" value="NVIDIA GPU" style="rounded=0;whiteSpace=wrap;html=1;fillColor=#d80073;strokeColor=#000000;fontColor=#ffffff;fontStyle=1;fontSize=20;strokeWidth=2;align=center;spacing=0;" vertex="1" parent="1">
          <mxGeometry x="990" y="500" width="140" height="60" as="geometry" />
        </mxCell>
        <mxCell id="WCPXIc9LmJP7Mr7B8AD5-182" style="edgeStyle=orthogonalEdgeStyle;html=1;strokeWidth=3;orthogonal=1;strokeColor=#000000;entryX=0.5;entryY=0;entryDx=0;entryDy=0;" edge="1" parent="1" target="WCPXIc9LmJP7Mr7B8AD5-181">
          <mxGeometry relative="1" as="geometry">
            <Array as="points">
              <mxPoint x="730" y="389" />
              <mxPoint x="730" y="440" />
              <mxPoint x="1060" y="440" />
            </Array>
            <mxPoint x="736" y="389" as="sourcePoint" />
            <mxPoint x="905" y="510" as="targetPoint" />
          </mxGeometry>
        </mxCell>
        <mxCell id="WCPXIc9LmJP7Mr7B8AD5-183" value="CP4D Operators" style="rounded=0;whiteSpace=wrap;html=1;fillColor=#d80073;strokeColor=#000000;fontColor=#ffffff;fontStyle=1;fontSize=20;strokeWidth=2;align=center;spacing=0;" vertex="1" parent="1">
          <mxGeometry y="930" width="140" height="60" as="geometry" />
        </mxCell>
        <mxCell id="WCPXIc9LmJP7Mr7B8AD5-184" value="CP4D CS Control" style="rounded=0;whiteSpace=wrap;html=1;fillColor=#d80073;strokeColor=#000000;fontColor=#ffffff;fontStyle=1;fontSize=20;strokeWidth=2;align=center;spacing=0;" vertex="1" parent="1">
          <mxGeometry y="1010" width="140" height="60" as="geometry" />
        </mxCell>
      </root>
    </mxGraphModel>
  </diagram>
</mxfile>
